<mxfile host="65bd71144e">
    <diagram id="8hsxHfMtxzrh8V-0nHn_" name="logo">
        <mxGraphModel dx="979" dy="356" grid="1" gridSize="9" guides="1" tooltips="1" connect="1" arrows="1" fold="1" page="1" pageScale="1" pageWidth="850" pageHeight="1100" math="0" shadow="0">
            <root>
                <mxCell id="0"/>
                <mxCell id="1" parent="0"/>
                <mxCell id="14" value="UNLOCK&amp;nbsp; PROGRAMMING&amp;nbsp;" style="shape=mxgraph.signs.transportation.car_lock;html=1;pointerEvents=1;fillColor=#007FFF;strokeColor=none;verticalLabelPosition=middle;verticalAlign=top;align=right;fontFamily=Inconsolata;fontSource=https%3A%2F%2Ffonts.googleapis.com%2Fcss%3Ffamily%3DInconsolata;fontSize=12;fontColor=#007FFF;labelPosition=center;whiteSpace=wrap;fontStyle=3" vertex="1" parent="1">
                    <mxGeometry x="468" y="270" width="98" height="75" as="geometry"/>
                </mxCell>
            </root>
        </mxGraphModel>
    </diagram>
</mxfile>